<svg xmlns="http://www.w3.org/2000/svg" viewBox="0 0 800 500" fill="none" stroke="currentColor" stroke-width="2.5" stroke-linecap="round" stroke-linejoin="round" font-family="Zen Kaku Gothic New, sans-serif">
  <circle cx="90" cy="70" r="18" stroke="#7BB661" stroke-width="3"/>
  <line x1="116" y1="70" x2="126" y2="70" stroke="#7BB661" stroke-width="3"/>
  <line x1="108.4" y1="88.4" x2="115.5" y2="95.5" stroke="#7BB661" stroke-width="3"/>
  <line x1="90" y1="96" x2="90" y2="106" stroke="#7BB661" stroke-width="3"/>
  <line x1="71.6" y1="88.4" x2="64.5" y2="95.5" stroke="#7BB661" stroke-width="3"/>
  <line x1="64" y1="70" x2="54" y2="70" stroke="#7BB661" stroke-width="3"/>
  <line x1="71.6" y1="51.6" x2="64.5" y2="44.5" stroke="#7BB661" stroke-width="3"/>
  <line x1="90" y1="44" x2="90" y2="34" stroke="#7BB661" stroke-width="3"/>
  <line x1="108.4" y1="51.6" x2="115.5" y2="44.5" stroke="#7BB661" stroke-width="3"/>
  <path d="M380,220 L220,186.8 L420,165.8 L580,181.4 Z" fill="none" stroke-width="3.5"/>
  <path d="M380,220 L380,400 L220,312.5 L220,186.8 Z" fill="currentColor" fill-opacity="0.18" stroke="none"/>
  <path d="M380,220 L380,400 L580,298.2 L580,181.4 Z" fill="currentColor" fill-opacity="0.45" stroke="none"/>
  <line x1="380" y1="220" x2="380" y2="400" stroke-width="3.5"/>
  <line x1="220" y1="186.8" x2="220" y2="312.5" stroke-width="3.5"/>
  <line x1="580" y1="181.4" x2="580" y2="298.2" stroke-width="3.5"/>
  <line x1="380" y1="220" x2="220" y2="186.8" stroke-width="3.5"/>
  <line x1="380" y1="220" x2="580" y2="181.4" stroke-width="3.5"/>
  <line x1="380" y1="400" x2="220" y2="312.5" stroke-width="3.5"/>
  <line x1="380" y1="400" x2="580" y2="298.2" stroke-width="3.5"/>
  <line x1="220" y1="186.8" x2="420" y2="165.8" stroke-width="3.5"/>
  <line x1="580" y1="181.4" x2="420" y2="165.8" stroke-width="3.5"/>
  <circle cx="420" cy="192.9" r="15" stroke="#7BB661" stroke-width="2"/>
  <text x="420" y="199.9" font-size="18" fill="#7BB661" stroke="none" text-anchor="middle">1</text>
  <circle cx="300" cy="320" r="15" stroke="currentColor" stroke-width="2"/>
  <text x="300" y="327" font-size="18" fill="currentColor" stroke="none" text-anchor="middle">2</text>
  <circle cx="480" cy="320" r="15" stroke="currentColor" stroke-width="2"/>
  <text x="480" y="327" font-size="18" fill="currentColor" stroke="none" text-anchor="middle">3</text>
  <text x="150" y="60" font-size="18" fill="currentColor" stroke="none" text-anchor="start">① いちばん明るい（上）</text>
  <text x="150" y="88" font-size="18" fill="currentColor" stroke="none" text-anchor="start">② 中間（光源側）</text>
  <text x="150" y="116" font-size="18" fill="currentColor" stroke="none" text-anchor="start">③ いちばん暗い（反対側）</text>
  <text x="400" y="475" font-size="20" fill="currentColor" stroke="none" text-anchor="middle">面ごとに明・中・暗の3段階。まず3つの差をはっきりと</text>
</svg>
