<svg xmlns="http://www.w3.org/2000/svg" viewBox="0 0 800 500" fill="none" stroke="currentColor" stroke-width="2.5" stroke-linecap="round" stroke-linejoin="round" font-family="Zen Kaku Gothic New, sans-serif">
  <circle cx="250" cy="220" r="110" stroke-width="4"/>
  <ellipse cx="250" cy="220" rx="40" ry="110" stroke="#7BB661" stroke-width="2.5"/>
  <ellipse cx="250" cy="235" rx="110" ry="30" stroke-dasharray="8 8" opacity="0.6"/>
  <path d="M160,285 L190,370 Q250,410 310,370 L340,285" stroke-width="4"/>
  <text x="250" y="440" font-size="18" fill="currentColor" stroke="none" text-anchor="middle">球＋あごの箱</text>
  <line x1="560" y1="110" x2="560" y2="330" stroke-width="3.5"/>
  <line x1="470" y1="120.7" x2="470" y2="314.6" stroke-width="3.5"/>
  <line x1="690" y1="125.8" x2="690" y2="307.2" stroke-width="3.5"/>
  <line x1="560" y1="110" x2="470" y2="120.7" stroke-width="3.5"/>
  <line x1="560" y1="110" x2="690" y2="125.8" stroke-width="3.5"/>
  <line x1="560" y1="330" x2="470" y2="314.6" stroke-width="3.5"/>
  <line x1="560" y1="330" x2="690" y2="307.2" stroke-width="3.5"/>
  <line x1="470" y1="120.7" x2="601.3" y2="133.2" stroke-width="3.5"/>
  <line x1="690" y1="125.8" x2="601.3" y2="133.2" stroke-width="3.5"/>
  <line x1="601.3" y1="133.2" x2="601.3" y2="296.5" stroke-dasharray="8 8" opacity="0.6"/>
  <line x1="470" y1="314.6" x2="601.3" y2="296.5" stroke-dasharray="8 8" opacity="0.6"/>
  <line x1="690" y1="307.2" x2="601.3" y2="296.5" stroke-dasharray="8 8" opacity="0.6"/>
  <line x1="560" y1="231" x2="690" y2="225.6" stroke="#7BB661" stroke-width="2.5"/>
  <line x1="625" y1="117.9" x2="625" y2="318.6" stroke="#7BB661" stroke-width="2.5"/>
  <text x="580" y="440" font-size="18" fill="currentColor" stroke="none" text-anchor="middle">箱で向きを決める</text>
  <text x="400" y="475" font-size="20" fill="currentColor" stroke="none" text-anchor="middle">頭は球＋箱。十字線は顔の面の向きに巻きつける</text>
</svg>
