<svg xmlns="http://www.w3.org/2000/svg" viewBox="0 0 800 500" fill="none" stroke="currentColor" stroke-width="2.5" stroke-linecap="round" stroke-linejoin="round" font-family="Zen Kaku Gothic New, sans-serif">
  <line x1="172" y1="110.9" x2="180" y2="262.8"/>
  <line x1="228" y1="109.1" x2="230" y2="261.2"/>
  <path d="M178,262 Q122,300 118,368 Q118,392 150,392 L430,392 Q452,390 446,370 L340,318 Q262,280 232,262"/>
  <path d="M135,392 L212,262 L446,392 Z" stroke="#45702A" stroke-width="3" stroke-dasharray="10 6"/>
  <text x="120" y="430" font-size="22" fill="currentColor" stroke="none" text-anchor="middle">かかと</text>
  <text x="330" y="285" font-size="22" fill="currentColor" stroke="none" text-anchor="middle">甲</text>
  <text x="440" y="430" font-size="22" fill="currentColor" stroke="none" text-anchor="middle">つま先</text>
  <text x="280" y="475" font-size="22" fill="currentColor" stroke="none" text-anchor="middle">横から：くさび形</text>
  <line x1="520" y1="40" x2="520" y2="460" stroke-dasharray="8 8" opacity="0.6" stroke-width="1.5"/>
  <path d="M600,90 Q636,90 640,130 Q690,260 690,360 Q688,420 630,420 Q575,420 570,370 L568,130 Q570,90 600,90 Z"/>
  <ellipse cx="590" cy="396" rx="16" ry="20"/>
  <circle cx="620" cy="404" r="9"/>
  <circle cx="642" cy="402" r="8"/>
  <circle cx="662" cy="396" r="7"/>
  <circle cx="678" cy="386" r="6"/>
  <path d="M578,92 L622,92 L690,360 L568,360 Z" stroke="#45702A" stroke-width="3" stroke-dasharray="10 6"/>
  <text x="730" y="120" font-size="18" fill="currentColor" stroke="none" text-anchor="middle">かかと</text>
  <text x="735" y="390" font-size="18" fill="currentColor" stroke="none" text-anchor="middle">つま先</text>
  <text x="630" y="475" font-size="22" fill="currentColor" stroke="none" text-anchor="middle">上から：内側はまっすぐ</text>
</svg>
